<?xml version="1.0" encoding="utf-8"?>
<!-- Generator: Adobe Illustrator 22.0.1, SVG Export Plug-In . SVG Version: 6.00 Build 0)  -->
<svg version="1.1" id="Calque_1" xmlns="http://www.w3.org/2000/svg" xmlns:xlink="http://www.w3.org/1999/xlink" x="0px" y="0px"
	 viewBox="0 0 150 25" style="enable-background:new 0 0 150 25;" xml:space="preserve">
<style type="text/css">
	.st0{fill:#C10230;}
</style>
<g>
	<path class="st0" d="M26.7,5.7c-1.5-0.6-4.1-1.4-8-1.4c-7.1,0-12.2,3.6-12.2,8.2c0,4.8,4.3,8,12.1,8c3.9,0,6.4-0.9,8-1.6
		c0,0,0.1,0,0.1-0.1l0-3.8c0,0,0-0.1-0.1-0.1l-0.3,0c0,0-0.1,0-0.1,0.1c-0.9,3.5-3.9,4.8-7.6,4.8c-5,0-8.5-2.8-8.5-7.4
		c0-4.6,3-7.4,8.5-7.4c3.9,0,6.4,1.7,7.3,4.4c0,0,0,0.1,0.1,0.1h0.3c0,0,0.1,0,0.1-0.1L26.7,5.7C26.7,5.7,26.7,5.7,26.7,5.7z"/>
	<path class="st0" d="M47.3,15.2C47.3,15.2,47.3,15.2,47.3,15.2l-0.1,0l-0.1,0l0,0c0,0-0.1,0-0.1,0c-0.4,0.7-0.7,1.2-1.2,1.8
		c-0.4,0.5-0.9,1-1.5,1.4c-0.6,0.4-1.3,0.7-2.1,0.9c-0.8,0.2-1.8,0.3-2.9,0.3h-0.6c-0.8,0-1.5-0.1-2-0.2c-0.5-0.1-0.9-0.3-1.1-0.6
		c-0.3-0.3-0.4-0.6-0.5-1.1c-0.1-0.4-0.1-0.9-0.1-1.5V8.6c0-0.3,0-0.5,0-0.8c0-0.2,0-0.5,0.1-0.7c0-0.2,0.1-0.4,0.1-0.6
		c0.1-0.2,0.1-0.4,0.2-0.5c0.1-0.1,0.2-0.3,0.3-0.4c0.1-0.1,0.2-0.2,0.4-0.3c0.2-0.1,0.3-0.2,0.5-0.2c0.2-0.1,0.4-0.1,0.6-0.1
		c0,0,0.1,0,0.1-0.1V4.6c0-0.1-0.1-0.1-0.1-0.1s-0.4,0-0.6,0c-0.2,0-0.5,0-0.8,0c-0.3,0-0.6,0-1,0c-0.4,0-0.8,0-1.2,0
		c-0.3,0-0.5,0-0.8,0c-0.3,0-0.6,0-0.9,0c-0.3,0-0.6,0-1,0c-0.3,0-0.7,0-1.1,0c0,0-0.1,0-0.1,0.1v0.1c0,0,0,0.1,0,0.1V5
		c0,0,0,0.1,0.1,0.1c0.2,0,0.4,0.1,0.6,0.1c0.2,0.1,0.4,0.1,0.5,0.2c0.2,0.1,0.3,0.2,0.4,0.3c0.1,0.1,0.2,0.2,0.3,0.4
		c0.1,0.2,0.2,0.3,0.2,0.5c0.1,0.2,0.1,0.4,0.1,0.6c0,0.2,0,0.4,0.1,0.7c0,0.2,0,0.5,0,0.8v7.5c0,0.3,0,0.5,0,0.8
		c0,0.2,0,0.5-0.1,0.7c0,0.2-0.1,0.4-0.1,0.6c-0.1,0.2-0.1,0.4-0.2,0.5c-0.1,0.1-0.2,0.3-0.3,0.4c-0.1,0.1-0.2,0.2-0.4,0.3
		c-0.2,0.1-0.3,0.2-0.5,0.2c-0.2,0.1-0.6,0.1-0.6,0.1s-0.1,0-0.1,0.1v0.3c0,0.1,0,0.1,0.1,0.1c0.4,0,0.7,0,1,0c0.3,0,0.7,0,1,0
		c0.3,0,0.6,0,0.9,0c0.3,0,0.6,0,0.8,0h8.5c0.5,0,1,0,1.4,0c0.5,0,0.9,0,1.2,0c0.4,0,0.7,0,0.9,0c0.1,0,0.2,0,0.3,0
		c0.1,0,0.1-0.1,0.1-0.1l1.2-3.7l0.4-1.2C47.4,15.3,47.4,15.2,47.3,15.2z"/>
	<path class="st0" d="M68.6,19.7c-1.7-0.2-2.7-1.7-3.9-3.7L60,8c-1.1-1.8-2.4-4-2.4-4s0,0,0,0c0,0,0,0-0.1,0c0,0-0.1,0-0.1,0
		c0,0-0.1,0-0.1,0c-0.5,0.8-1,1.8-2.5,4.3l-4.2,6.8c-1.9,3.2-3.1,4.4-3.9,4.6c0,0-0.1,0.1-0.1,0.1v0.3c0,0,0,0.1,0.1,0.1
		c0.6,0,1.2,0,2.5,0c1.2,0,3,0,3,0s0.1,0,0.1-0.1c0-0.1,0-0.3,0-0.3c0,0,0-0.1-0.1-0.1c-1.3-0.3-1.8-1-1.8-1.8c0-0.8,0.5-1.8,1.2-3
		l0.5-0.9c0,0,0-0.1,0.1-0.1h7.8c0,0,0.1,0,0.1,0.1l1,1.7c0.7,1.2,1.2,2,1.2,2.8c0,0.7-0.5,1.1-1.9,1.3c-0.1,0-0.1,0.1-0.1,0.1v0.3
		c0,0.1,0,0.1,0.1,0.1c1.4,0,2.7-0.1,4-0.1c1.3,0,4.1,0.1,4.1,0.1s0.1,0,0.1-0.1L68.6,19.7C68.7,19.8,68.7,19.7,68.6,19.7z
		 M59.6,13.1h-6.8c-0.1,0-0.1-0.1-0.1-0.1l0.8-1.3c1.5-2.6,2.1-3.5,2.6-4.3c0-0.1,0.1-0.1,0.2,0c0.4,0.7,1.2,1.9,2.6,4.3l0.8,1.3
		C59.7,13,59.7,13.1,59.6,13.1z"/>
	<path class="st0" d="M141,12.4c-1.4-0.7-3.3-1-5.3-1.4l-1.6-0.3c-3.4-0.6-4.8-1.3-4.8-3.1c0-1.6,1.8-2.7,5.5-2.7
		c3.9,0,5.7,1.8,6.3,4c0,0,0,0.1,0.1,0.1h0.3c0,0,0.1,0,0.1-0.1l0.3-3.5c0,0,0,0,0,0c-2-0.6-4.1-1.1-7.1-1.1c-4.7,0-8.3,1.5-8.3,4.4
		c0,3,2.9,3.9,6.7,4.6l1.5,0.3c3.5,0.6,6.1,1.1,6.1,3.3c0,2-2.8,2.9-6.4,2.9c-3.4,0-6.5-1.3-7.6-4.8c0,0,0-0.1-0.1-0.1h-0.3
		c0,0-0.1,0-0.1,0.1l-0.3,3.9c0,0,0,0,0,0c1.1,0.5,4.1,1.5,8.3,1.5c5.6,0,9.1-1.5,9.1-4.7C143.5,14.1,142.5,13.1,141,12.4z"/>
	<path class="st0" d="M124.3,4.6c-1,0-2.1,0-3.1,0c-1,0-2,0-3.2,0c0,0-0.1,0-0.1,0.1V5c0,0,0,0.1,0.1,0.1c1.4,0.2,2,0.6,2.4,1.3
		c0.5,0.9,0.6,2.2,0.6,4.1v1.8c0,1.9,0,3.3,0,3.7c0,0.1-0.1,0.1-0.1,0.1c-0.3-0.3-1.1-1.1-3.1-2.7l-5.7-4.9
		c-2.3-1.9-3.9-3.3-4.2-3.7c0,0,0,0-0.1,0c-0.8,0-1.8,0-2.5,0c-0.9,0-1.3,0-2.7,0c0,0-0.1,0-0.1,0.1V5c0,0.1,0.1,0.1,0.1,0.1
		c0.9,0.2,1.7,0.4,2.6,1.2c0,0,0,0.1,0,0.1v7.9c0,1.9,0,3.2-0.6,4.1c-0.4,0.6-1.1,1.1-2.2,1.3c0,0-0.1,0.1-0.1,0.1v0.3
		c0,0,0,0.1,0.1,0.1c1,0,1.8,0,2.8,0c1,0,2.3,0,3.5,0c0,0,0.1,0,0.1-0.1v-0.3c0,0,0-0.1-0.1-0.1c-1.1-0.2-1.9-0.7-2.3-1.3
		c-0.5-0.9-0.6-2.2-0.6-4.1v-1.9c0-2.7,0-4.8,0-5.4c0-0.1,0.1-0.1,0.1-0.1c0,0,2.2,2,4.8,4.2l5.3,4.6c1.5,1.3,5.4,4.7,5.4,4.7
		s0,0,0.1,0.1c0,0,0.1,0,0.1-0.1c0,0,0-4.2,0-5.9v-4.2c0-1.9,0-3.2,0.6-4.1c0.4-0.6,0.9-1,2-1.2c0.1,0,0.1-0.1,0.1-0.1L124.3,4.6
		C124.4,4.6,124.4,4.6,124.3,4.6z"/>
	<path class="st0" d="M90,19.7c-1.7-0.4-2.2-1.6-2.8-3L87,16.4c-1-2.6-1.9-3.8-4.9-3.9c-0.1,0-0.1-0.1,0-0.1c3-0.2,5.5-1.4,5.5-4.1
		c0-3.2-3.8-3.6-8-3.6c-0.8,0-1.6,0-2.5,0h-3.6c-1.1,0-2.8,0-4.1,0c0,0-0.1,0-0.1,0.1V5c0,0.1,0,0.1,0.1,0.1c0.9,0.1,1.5,0.5,1.8,1
		c0.4,0.6,0.4,1.5,0.4,2.6v7.5c0,1.1,0,2-0.4,2.6c-0.3,0.5-0.9,0.8-1.8,1c0,0-0.1,0-0.1,0.1v0.3c0,0.1,0.1,0.1,0.1,0.1
		c1.5,0,2.7,0,3.7,0c1.1,0,3.6,0,3.6,0s0.1,0,0.1-0.1v-0.3c0,0,0-0.1-0.1-0.1c-0.9-0.1-1.5-0.5-1.8-1c-0.4-0.6-0.4-1.5-0.4-2.6v-3.4
		c0-0.1,0-0.1,0.1-0.1c0.6,0,2.4,0,3,0c3.8,0,5.2,1.6,6.1,3.9c0.7,1.7,1.5,3.6,2.1,3.6h1.2c1.2,0,1.8,0,2.8,0c0,0,0.1,0,0.1-0.1
		L90,19.7C90,19.8,90,19.7,90,19.7z M74.8,11.9C74.7,11.9,74.7,11.9,74.8,11.9l-0.1-6.6c0-0.1,0-0.1,0.1-0.1c0.9,0,3.7,0,4.3,0
		c2.6,0,5.3,0.3,5.3,3c0,3.6-3.2,3.7-6.1,3.7H74.8z"/>
	<path class="st0" d="M99.5,20.1v-0.3c0,0,0,0,0,0c0-0.1,0-0.1-0.1-0.1c-0.9-0.1-1.5-0.5-1.8-1c-0.4-0.6-0.4-1.5-0.4-2.6V8.6
		c0-1.1,0.1-2,0.4-2.6c0.3-0.5,0.9-0.8,1.8-1c0,0,0.1,0,0.1-0.1V4.6c0-0.1,0-0.1-0.1-0.1c-1.4,0-2.5,0-3.6,0c-1.1,0-2.2,0-3.7,0
		c-0.1,0-0.1,0-0.1,0.1V5C92,5,92,5,92,5c0.9,0.1,1.5,0.5,1.8,1c0.4,0.6,0.4,1.5,0.4,2.6v7.5c0,1.1-0.1,2-0.4,2.6
		c-0.3,0.5-0.9,0.9-1.9,1v0.5c1.5-0.1,2.8-0.1,3.8-0.1C96.9,20.1,98,20.1,99.5,20.1C99.5,20.2,99.5,20.1,99.5,20.1z"/>
</g>
</svg>
