<?xml version="1.0" encoding="utf-8"?>
<!-- Generator: Adobe Illustrator 22.0.1, SVG Export Plug-In . SVG Version: 6.00 Build 0)  -->
<svg version="1.1" id="Calque_1" fill="white" xmlns="http://www.w3.org/2000/svg" xmlns:xlink="http://www.w3.org/1999/xlink" x="0px" y="0px"
	 viewBox="0 0 512 512" style="enable-background:new 0 0 512 512;" xml:space="preserve">
<style type="text/css">
	.st0{display:none;}
	.st1{display:inline;fill:#fff;}
	.st2{fill:#fff;}
</style>
<g id="Layer_1" class="st0">
	<g class="st1">
		<g>
			<path d="M506.6,208.1L263.9,30.4c-4.7-3.4-11-3.4-15.7,0L5.4,208.1c-5.9,4.3-7.2,12.7-2.9,18.6s12.7,7.2,18.6,2.9L256,57.6
				l234.8,171.9c2.4,1.7,5.1,2.6,7.8,2.6c4.1,0,8.1-1.9,10.7-5.4C513.8,220.7,512.5,212.4,506.6,208.1z"/>
		</g>
	</g>
	<g class="st1">
		<g>
			<path d="M442.2,232.5c-7.3,0-13.3,6-13.3,13.3v211.7H322.5V342c0-36.7-29.8-66.5-66.5-66.5s-66.5,29.8-66.5,66.5v115.6H83.1
				V245.8c0-7.3-6-13.3-13.3-13.3s-13.3,6-13.3,13.3v225.1c0,7.3,6,13.3,13.3,13.3h133c7,0,12.7-5.4,13.3-12.3c0-0.3,0.1-0.7,0.1-1
				V342c0-22,17.9-39.9,39.9-39.9S296,320,296,342v128.9c0,0.4,0,0.7,0.1,1c0.5,6.9,6.3,12.3,13.3,12.3h133c7.3,0,13.3-6,13.3-13.3
				V245.8C455.5,238.5,449.6,232.5,442.2,232.5z"/>
		</g>
	</g>
</g>
<g id="Calque_2_1_" class="st0">
	<g class="st1">
		<path d="M478.5,47.1h-445C15,47.1,0,62.1,0,80.6v281.7c0,18.5,15,33.5,33.5,33.5h147.7l49.1,58.4c6.4,7.6,15.8,12,25.7,12
			c9.9,0,19.3-4.4,25.7-11.9l49.1-58.4h147.7c18.5,0,33.5-15,33.5-33.5V80.6C512,62.1,497,47.1,478.5,47.1z M481.5,365.4H315.2
			L256,435.7l-59.2-70.4H30.5V77.5h451.1v287.9H481.5z"/>
		<path d="M263.5,216.6c0,6.8-5.5,12.3-12.3,12.3H91c-6.8,0-12.3-5.5-12.3-12.3l0,0c0-6.8,5.5-12.3,12.3-12.3h160.2
			C257.9,204.3,263.5,209.8,263.5,216.6L263.5,216.6z"/>
		<path d="M263.5,149.4c0,6.8-5.5,12.3-12.3,12.3H91c-6.8,0-12.3-5.5-12.3-12.3l0,0c0-6.8,5.5-12.3,12.3-12.3h160.2
			C257.9,137.1,263.5,142.6,263.5,149.4L263.5,149.4z"/>
		<path d="M437.5,281.2c0,6.8-5.5,12.3-12.3,12.3H91c-6.8,0-12.3-5.5-12.3-12.3l0,0c0-6.8,5.5-12.3,12.3-12.3h334.2
			C432,268.9,437.5,274.4,437.5,281.2L437.5,281.2z"/>
	</g>
</g>
<g id="Calque_3" class="st0">
	<g class="st1">
		<path d="M420,379.5L420,379.5c0,14.7-22.9,38.5-48.2,50.8c-29.9,14.5-70.1,22.5-113.1,22.5s-83.2-8-113.1-22.5
			c-25.4-12.3-47.2-36.1-47.2-50.8v-87.4l-29-19.8v107.2c0,29.5,21.4,56.2,60.3,75.1c34.7,16.9,80.5,26.2,128.9,26.2
			s94.2-9.3,128.9-26.2c38.9-18.9,60.3-45.6,60.3-75.1V272.3L420,292.1V379.5z"/>
		<path d="M504.5,165.3c-5.7-5.5-36.5-24-232.4-131c-3.9-3.1-8.7-4.7-13.4-4.7c-4.7,0-9.5,1.6-13.4,4.7L8.1,163.9
			C3,168,0,174.2,0,180.7s3,12.7,8.1,16.8L245.3,327c3.9,3.1,8.7,4.7,13.4,4.7c4.8,0,9.5-1.6,13.4-4.7L483,211.8v155.8
			c0,7.8,6.3,14.1,14.1,14.1c7.8,0,14.1-6.3,14.1-14.1V177.3C511.2,172.3,508.5,167.8,504.5,165.3z M258.7,303.5l-222-122.8
			l222-122.8l222,122.8L258.7,303.5z"/>
	</g>
</g>
<g id="Calque_4" class="st0">
	<g class="st1">
		<g>
			<g>
				<path d="M361.6,247.5c-6.8,8.5-9.4,15.4-18.1,22.5c49.8,28.6,82.4,83.3,82.4,144.7c0,33.2-76.7,62.2-169.5,62.2
					s-169.5-29-169.5-62.2c0-61.4,32.6-116.1,82.4-144.7c-8.7-7.1-11.3-14-18.1-22.5c-55.5,35-92.4,96.9-92.4,167.2
					c0,21.3,11.7,51,67.2,71.4c34.7,12.8,81,19.8,130.4,19.8s95.7-7,130.4-19.8c55.6-20.5,67.2-50.1,67.2-71.4
					C454,344.4,417.1,282.5,361.6,247.5z"/>
				<path d="M256.5,268.6c62.3,0,110.2-60.2,110.2-131.4S318.7,5.8,256.5,5.8c-62.3,0-110.2,60.2-110.2,131.4
					C146.2,208.5,194.2,268.6,256.5,268.6z M256.5,30.3c46.4,0,84.2,48,84.2,107s-37.8,107-84.2,107s-84.2-48-84.2-107
					S210,30.3,256.5,30.3z"/>
			</g>
		</g>
	</g>
</g>
<g id="Calque_5" class="st0">
	<g class="st1">
		<g>
			<g>
				<path d="M211.2,270.6H47.5c-16.7,0-30.3,13.6-30.3,30.3v163.8c0,16.7,13.6,30.3,30.3,30.3h163.8c16.7,0,30.3-13.6,30.3-30.3
					V300.9C241.5,284.2,227.9,270.6,211.2,270.6z M211.2,467.3H47.5c-1.5,0-2.6-1.2-2.6-2.6V300.9c0-1.5,1.2-2.6,2.6-2.6h163.8
					c1.5,0,2.6,1.2,2.6,2.6v163.8l0,0C213.9,466.2,212.7,467.3,211.2,467.3z"/>
			</g>
		</g>
	</g>
	<g class="st1">
		<g>
			<g>
				<path d="M211.2,18H47.5c-16.7,0-30.3,13.6-30.3,30.3v163.8c0,16.7,13.6,30.3,30.3,30.3h163.8c16.7,0,30.3-13.6,30.3-30.3V48.3
					C241.5,31.6,227.9,18,211.2,18z M211.2,214.7H47.5c-1.5,0-2.6-1.2-2.6-2.6V48.3c0-1.5,1.2-2.6,2.6-2.6h163.8
					c1.5,0,2.6,1.2,2.6,2.6v163.8l0,0C213.9,213.5,212.7,214.7,211.2,214.7z"/>
			</g>
		</g>
	</g>
	<g class="st1">
		<g>
			<g>
				<path d="M463.9,270.6H300.1c-16.7,0-30.3,13.6-30.3,30.3v163.8c0,16.7,13.6,30.3,30.3,30.3h163.8c16.7,0,30.3-13.6,30.3-30.3
					V300.9C494.2,284.2,480.6,270.6,463.9,270.6z M463.9,467.3H300.1c-1.5,0-2.6-1.2-2.6-2.6V300.9c0-1.5,1.2-2.6,2.6-2.6h163.8
					c1.5,0,2.6,1.2,2.6,2.6v163.8l0,0C466.5,466.2,465.3,467.3,463.9,467.3z"/>
			</g>
		</g>
	</g>
	<g class="st1">
		<g>
			<g>
				<path d="M463.9,18H300.1c-16.7,0-30.3,13.6-30.3,30.3v163.8c0,16.7,13.6,30.3,30.3,30.3h163.8c16.7,0,30.3-13.6,30.3-30.3V48.3
					C494.2,31.6,480.6,18,463.9,18z M463.9,214.7H300.1c-1.5,0-2.6-1.2-2.6-2.6V48.3c0-1.5,1.2-2.6,2.6-2.6h163.8
					c1.5,0,2.6,1.2,2.6,2.6v163.8l0,0C466.5,213.5,465.3,214.7,463.9,214.7z"/>
			</g>
		</g>
	</g>
</g>
<g id="Calque_17" class="st0">
	<g class="st1">
		<g>
			<path d="M463.9,49.4c-7.1-8.3-17.4-13.1-28.3-13.1h-35.8V25.1c0-13.8-11.3-25.1-25.1-25.1H132.1C118.3,0,107,11.3,107,25.1v11.2
				H71.3C60.4,36.3,50,41.1,43,49.4c-7,8.2-10,19-8.3,29.6c9.4,57.8,45.8,108.9,97.4,136.9c4.7,11.3,10.1,22.1,16,32.1
				c19,32,42.6,54.1,68.6,64.8c2.6,26.6-15.1,51.9-41.8,57.9c-0.1,0-0.1,0-0.2,0c-5.2,1.2-9.1,5.9-9.1,11.5v54.4h-22
				c-19.6,0-35.5,15.9-35.5,35.5v28.1c0,6.5,5.3,11.9,11.8,11.9h268c6.5,0,11.9-5.3,11.9-11.9v-28.1c0-19.6-15.9-35.5-35.5-35.5h-22
				v-54.4c0-5.6-3.9-10.3-9.1-11.5h-0.1c-26.9-6.1-44.7-31.5-41.8-58.4c25.5-10.9,48.8-32.8,67.5-64.3c5.9-10,11.3-20.8,16-32.1
				c51.6-28,88-79.1,97.4-136.9C473.9,68.4,470.9,57.6,463.9,49.4z M58.1,75.2c-0.6-3.8,0.4-7.5,2.9-10.5c2.6-3,6.3-4.7,10.2-4.7
				H107v21.8c0,34.2,4.4,67.3,12.6,97.6C87.2,153.7,64.8,116.4,58.1,75.2z M364.3,460.2c6.5,0,11.9,5.3,11.9,11.9v16.2H131.9v-16.2
				c0-6.5,5.3-11.9,11.9-11.9H364.3z M318.6,394v42.5H189.4V394H318.6z M220.5,370.3c2.9-3.2,5.6-6.7,8-10.5
				c7.9-12.3,12-26.4,12.2-40.7c4.2,0.6,8.5,0.9,12.7,0.9c4.7,0,9.3-0.4,13.9-1c0.3,19.2,7.8,37.5,20.3,51.3L220.5,370.3
				L220.5,370.3z M376.1,81.8c0,58.4-13.4,113.1-37.7,154c-23.2,39-53.4,60.5-85,60.5s-61.8-21.5-85-60.5
				c-24.3-41-37.7-95.7-37.7-154V25.1c0-0.8,0.6-1.4,1.4-1.4h242.6c0.8,0,1.4,0.6,1.4,1.4V81.8z M448.8,75.2
				c-6.7,41.2-29.1,78.5-61.6,104.2c8.3-30.3,12.6-63.4,12.6-97.6V60h35.8c3.9,0,7.7,1.7,10.2,4.7C448.3,67.7,449.4,71.4,448.8,75.2
				z"/>
		</g>
	</g>
</g>
<g id="Calque_18" class="st0">
	<g class="st1">
		<g>
			<g>
				<path d="M505,7.1c-2.2-2.2-5.3-3.2-8.1-3C402,7.9,290.7,59.6,198.5,151.7c-51.7,3.2-107,28-151.6,72.5C31,240,17.7,257.2,7,275
					c-0.1,0.1-0.5,0.8-0.5,0.8c-2.1,4-1.5,9,1.8,12.4c1.1,1.1,2.4,1.9,3.8,2.4c0,0,1.1,0.4,1.6,0.5l72.1,20.1
					c-5.2,11.4-9.9,22.8-14,34.1c-1.3,3.7-0.4,7.9,2.5,10.8l8.7,8.7c-6.6,2.8-12.8,7-18.2,12.4C43.2,398.8,7.4,506.8,7.4,506.8
					s108-35.8,129.5-57.4c5.4-5.4,9.6-11.7,12.4-18.2l6.5,6.6c2.9,2.9,7.2,3.8,10.8,2.5c11.3-4.1,22.7-8.8,34.1-14l20.1,72.1
					c0.1,0.5,0.5,1.6,0.5,1.6c0.5,1.4,1.3,2.7,2.4,3.8c3.3,3.4,8.4,4,12.4,1.8c0,0,0.7-0.4,0.8-0.5c17.8-10.7,35-24,50.8-39.8
					c44.6-44.6,69.3-99.9,72.5-151.6c92.3-92.4,144-203.6,147.8-298.5C508.2,12.4,507.2,9.2,505,7.1z M32.2,274.5
					c8.6-12.6,18.4-24.4,29.5-35.5c18.7-18.7,39.6-33.9,62.2-45.2c17-8.5,34.4-14.6,51.8-18.1c-33.1,37-60.1,76.5-80.5,116.2
					L32.2,274.5z M122.1,434.7c-1.7,1.7-13,11.4-65.5,32c-5,2-9.9,3.9-14.7,5.6c1.7-4.7,3.6-9.6,5.6-14.5
					c20.7-52.6,30.3-63.9,32.1-65.7c5.7-5.7,12.7-9.3,20.2-10.5l32.9,32.9C131.5,421.7,128,428.8,122.1,434.7z M318.2,388.2
					c-11.3,22.6-26.5,43.5-45.2,62.2c-11,11-22.9,20.9-35.5,29.5l-17.5-63c39.8-20.4,79.3-47.4,116.3-80.5
					C332.8,353.8,326.7,371.2,318.2,388.2z M406.6,226.6c-18,25.5-38.7,49.9-61.4,72.6c-22.7,22.7-47.2,43.4-72.6,61.4
					c-24.6,17.5-50.2,32.5-76.1,44.6c-10.2,4.8-20.3,9.1-30.5,12.9L93.9,346c3.9-10.2,8.2-20.3,12.9-30.5
					c12.2-25.9,27.2-51.5,44.6-76.1c18-25.5,38.7-49.9,61.4-72.6s47.2-43.4,72.6-61.4c24.3-17.2,49.5-32.1,75.1-44.1l90.2,90.2
					C438.6,177,423.8,202.3,406.6,226.6z M459.8,131l-78.7-78.7c35.9-14.8,71.7-23.8,105.3-26.6C483.6,59.3,474.6,95,459.8,131z"/>
				<path d="M316.7,153.4c-11.2,0-21.7,4.4-29.6,12.3c-7.9,7.9-12.3,18.4-12.3,29.6c0,11.2,4.4,21.7,12.3,29.6
					c7.9,7.9,18.4,12.3,29.6,12.3s21.7-4.4,29.6-12.3c16.3-16.3,16.3-42.9,0-59.3C338.5,157.8,327.9,153.4,316.7,153.4z
					 M331.5,210.1c-4,4-9.2,6.1-14.8,6.1c-5.6,0-10.9-2.2-14.8-6.1c-4-4-6.1-9.2-6.1-14.8s2.2-10.9,6.1-14.8c4-4,9.2-6.1,14.8-6.1
					c5.6,0,10.8,2.2,14.8,6.1C339.7,188.7,339.7,202,331.5,210.1z"/>
				<path d="M227.8,242.3c-11.2,0-21.7,4.4-29.6,12.3c-7.9,7.9-12.3,18.4-12.3,29.6s4.4,21.7,12.3,29.6c7.9,7.9,18.4,12.3,29.6,12.3
					c11.2,0,21.7-4.4,29.6-12.3s12.3-18.4,12.3-29.6s-4.4-21.7-12.3-29.6C249.6,246.7,239,242.3,227.8,242.3z M242.7,299
					c-3.9,4-9.2,6.1-14.8,6.1S217,303,213,299c-3.9-4-6.1-9.2-6.1-14.8c0-5.6,2.2-10.9,6.1-14.8c4-3.9,9.2-6.1,14.8-6.1
					s10.9,2.2,14.8,6.1c4,3.9,6.1,9.2,6.1,14.8C248.8,289.8,246.6,295.1,242.7,299z"/>
			</g>
		</g>
	</g>
</g>
<g id="Calque_19" class="st0">
	<path class="st1" d="M256.4,511.2C115.5,511.2,0.8,396.5,0.8,255.6S115.5,0,256.4,0S512,114.7,512,255.6S397.3,511.2,256.4,511.2z
		 M256.4,21C127,21,21.8,126.2,21.8,255.6S127,490.2,256.4,490.2S491,384.9,491,255.6C491,126.2,385.8,21,256.4,21z"/>
	<g class="st1">
		<g>
			<path d="M393.4,224c-1-3.1-3.7-5.4-7-5.9l-84.5-12.3l-37.8-76.6c-1.5-2.9-4.4-4.8-7.7-4.8c-3.3,0-6.3,1.9-7.7,4.8l-37.8,76.6
				l-84.5,12.3c-3.2,0.5-5.9,2.7-7,5.9c-1,3.1-0.2,6.5,2.2,8.8l61.2,59.6l-14.4,84.2c-0.6,3.2,0.8,6.5,3.4,8.4
				c2.7,1.9,6.2,2.2,9.1,0.7l75.6-39.7l75.6,39.7c1.3,0.7,2.6,1,4,1c1.8,0,3.6-0.6,5.1-1.6c2.7-1.9,4-5.2,3.4-8.4l-14.4-84.2
				l61.2-59.6C393.6,230.5,394.4,227.1,393.4,224z M314.8,283.3c-2,2-3,4.8-2.5,7.6l12.3,71.4l-64.1-33.7c-1.3-0.7-2.6-1-4-1
				s-2.8,0.3-4,1l-64.1,33.7l12.3-71.4c0.5-2.8-0.4-5.6-2.5-7.6l-51.9-50.6l71.7-10.4c2.8-0.4,5.2-2.2,6.5-4.7l32.1-65l32.1,65
				c1.3,2.5,3.7,4.3,6.5,4.7l71.7,10.4L314.8,283.3z"/>
		</g>
	</g>
</g>
<g id="Calque_20" class="st0">
	<path class="st1" d="M167.6,509.5c37.5,0,68-30.5,68-68V229l1.2-0.7c38.6-24.1,61.6-65.6,61.6-111c0-46.3-24.9-89.6-64.9-113l0,0
		c-6-3.5-13.6-1.5-17.1,4.5c-1.1,2-1.7,4.2-1.7,6.5v0.1v0.1c0,0.1,0,0.2,0,0.3v0.1v90.7l-47.2,27.3l-47.2-27.2V15.9
		c0-0.2,0-0.3,0-0.3v-0.1v-0.1c0-2.3-0.6-4.5-1.7-6.5c-2.3-4-6.5-6.2-10.8-6.2c-2.1,0-4.3,0.6-6.3,1.7C82.2,15.8,66,32,54.7,51.4
		c-11.7,19.9-17.8,42.7-17.8,66c0,45.3,23,86.8,61.6,111l1.2,0.7v212.5C99.7,479,130.2,509.5,167.6,509.5z M210.6,441.5
		c0,23.7-19.3,43-43,43s-43-19.3-43-43V240.9l3.3,1c12.8,4.1,26.2,6.2,39.7,6.2s26.9-2.1,39.7-6.2l3.3-1V441.5z M61.9,117.3
		c0-27.1,10.4-53,29.2-72.9l4.3-4.6V105c0,9.8,5.3,18.9,13.7,23.7l44.8,25.8c4.1,2.4,8.9,3.7,13.7,3.7l0,0c4.8,0,9.6-1.3,13.7-3.7
		l44.8-25.8c8.5-4.9,13.7-14,13.7-23.7V39.7l4.3,4.5c19,19.9,29.4,45.9,29.4,73.1c0,58.3-47.5,105.8-105.8,105.8
		C109.3,223.1,61.9,175.6,61.9,117.3z"/>
	<path class="st1" d="M167.6,275.1c-6.9,0-12.5,5.6-12.5,12.5v151.9c0,6.9,5.6,12.5,12.5,12.5s12.5-5.6,12.5-12.5V287.6
		C180.1,280.7,174.5,275.1,167.6,275.1z"/>
	<path class="st1" d="M356.3,451.9c0,31.1,25.3,56.3,56.3,56.3c31.1,0,56.3-25.3,56.3-56.3V294.2c0-19.2-15.6-34.8-34.8-34.8H425
		V88.5l2.4-0.1c5.8-0.3,11.2-3,14.9-7.4c4-4.7,5.8-11,4.8-17.1L439.9,19c-1.6-9.7-9.9-16.8-19.8-16.8h-14.9
		c-9.9,0-18.2,7.1-19.8,16.8l-7.3,44.9c-1,6.1,0.7,12.4,4.7,17.1c3.7,4.4,9.2,7.1,15,7.4l2.4,0.1v170.9h-9.1
		c-19.2,0-34.8,15.6-34.8,34.8L356.3,451.9L356.3,451.9z M399.5,66.4l6.9-42.3h12.5l6.9,42.3H399.5z M381.3,294.2
		c0-2.6,1-5.1,2.9-6.9c1.8-1.8,4.3-2.9,6.9-2.9h43.1c5.4,0,9.8,4.4,9.8,9.8v102.4h-62.7L381.3,294.2L381.3,294.2z M381.3,421.6H444
		v30.3c0,17.3-14.1,31.3-31.3,31.3c-17.3,0-31.3-14.1-31.3-31.3v-30.3H381.3z"/>
</g>
<g id="Calque_6" class="st0">
	<g class="st1">
		<g>
			<g>
				<path d="M421.8,143.8c-2.6-2.1-6-2.9-9.3-2.2c-0.1,0-10.3,2.2-26.2,2.2c-32.1,0-79.4-8.2-123-47.2c-4.2-3.8-10.6-3.8-14.8,0
					c-43.6,39-90.9,47.2-123,47.2c-15.9,0-26.1-2.1-26.1-2.2c-3.3-0.7-6.7,0.1-9.3,2.2c-2.6,2.1-4.1,5.3-4.1,8.6
					c0,105.9,32.8,171.1,60.2,207.2c37.6,49.3,81.3,66.9,109.8,66.9s72.2-17.6,109.8-66.9c27.5-36.1,60.2-101.3,60.2-207.2
					C425.9,149,424.4,145.9,421.8,143.8z M348,346.2c-32.7,42.9-70.1,58.1-92.2,58.1s-59.5-15.2-92.2-58.1
					c-24.3-31.9-53.1-88.8-55.5-181c4.7,0.4,10.6,0.8,17.3,0.8c46.7,0,92.5-15.5,130.4-46.5c37.8,30.9,83.6,46.5,130.4,46.5
					c6.7,0,12.5-0.3,17.3-0.8C401.1,257.3,372.3,314.2,348,346.2z"/>
				<path d="M330.4,213.7L239.1,305l-48.9-48.9c-4.3-4.3-11.4-4.3-15.7,0c-4.3,4.3-4.3,11.4,0,15.7l56.8,56.8c2.2,2.2,5,3.2,7.8,3.2
					s5.7-1.1,7.8-3.2l99.2-99.2c4.3-4.3,4.3-11.4,0-15.7C341.8,209.4,334.8,209.4,330.4,213.7z"/>
			</g>
		</g>
	</g>
</g>
<g id="Calque_8" class="st0">
	<g class="st1">
		<g>
			<path d="M433.7,216.5c-1.3-4.1-4.8-7-9.1-7.6l-110.1-16l-49.2-99.8c-1.9-3.8-5.8-6.3-10.1-6.3s-8.2,2.4-10.1,6.3l-49.2,99.8
				l-110.1,16c-4.2,0.6-7.7,3.6-9.1,7.6c-1.3,4.1-0.2,8.5,2.8,11.5l79.7,77.7l-18.8,109.7c-0.7,4.2,1,8.5,4.5,11s8,2.8,11.8,0.9
				l98.5-51.8l98.5,51.8c1.6,0.9,3.4,1.3,5.2,1.3c2.3,0,4.6-0.7,6.6-2.1c3.5-2.5,5.2-6.8,4.5-11l-18.8-109.7l79.7-77.7
				C433.9,225.1,435,220.6,433.7,216.5z M331.3,293.7c-2.6,2.6-3.9,6.3-3.2,9.9l16,93.1l-83.6-43.9c-1.6-0.9-3.4-1.3-5.2-1.3
				s-3.6,0.4-5.2,1.3l-83.6,43.9l16-93.1c0.6-3.6-0.6-7.4-3.2-9.9l-67.6-65.9l93.4-13.6c3.7-0.5,6.8-2.8,8.4-6.1l41.8-84.7
				l41.8,84.7c1.6,3.3,4.8,5.6,8.4,6.1l93.4,13.6L331.3,293.7z"/>
		</g>
	</g>
</g>
<g id="Calque_9" class="st0">
	<path class="st1" d="M254.8,89.9c-86.5,0-156.8,70-156.8,156.2c0,43.4,17.3,83,48.7,111.6v63.2c0,3.8,2,7.3,5.3,9.2
		c1.6,0.9,3.4,1.4,5.3,1.4c1.9,0,3.7-0.5,5.4-1.5l54.7-32.1c12.2,3,24.8,4.5,37.4,4.5c86.5,0,156.8-70.1,156.8-156.2
		S341.3,89.9,254.8,89.9z M254.8,381.1c-12.3,0-24.5-1.6-36.2-4.9c-2.7-0.7-5.7-0.4-8.2,1.1l-42.5,25v-49.4c0-3.1-1.4-6-3.7-8.1
		c-29-24.7-45-59.8-45-98.7c0-74.4,60.8-135,135.6-135s135.6,60.6,135.6,135S329.6,381.1,254.8,381.1z"/>
</g>
<g id="Calque_7" class="st0">
	<g class="st1">
		<path d="M493.5,409.1c9.3,0,16.9-7.6,16.9-16.9V260.1c0-9.3-7.6-16.9-16.9-16.9H352V128c0-9.3-7.6-16.9-16.9-16.9H176.7
			c-9.3,0-16.9,7.6-16.9,16.9v62.4H18.3c-9.3,0-16.9,7.6-16.9,16.9v184.9c0,9.3,7.6,16.9,16.9,16.9L493.5,409.1L493.5,409.1z
			 M25,214h134.8v171.5H25V214z M183.4,134.7h145v250.7h-145V134.7z M486.8,385.4H352V266.8h134.8V385.4z"/>
	</g>
</g>
<g id="Calque_10" class="st0">
	<g class="st1">
		<g>
			<g>
				<path d="M371.5,89.9H139.1c-14.3,0-25.9,11.6-25.9,25.9v286.8c0,14.3,11.6,25.9,25.9,25.9h232.3c14.3,0,25.9-11.6,25.9-25.9
					V115.8C397.4,101.5,385.8,89.9,371.5,89.9z M371.3,400.1c0,1.2-1,2.3-2.3,2.3H141.5c-1.2,0-2.3-1-2.3-2.3V118.2
					c0-1.2,1-2.3,2.3-2.3H369c1.2,0,2.3,1,2.3,2.3V400.1L371.3,400.1z"/>
				<path d="M179.9,180.8h80.2c6.5,0,11.8-5.3,11.8-11.8s-5.3-11.8-11.8-11.8h-80.2c-6.5,0-11.8,5.3-11.8,11.8
					C168.1,175.5,173.4,180.8,179.9,180.8z"/>
				<path d="M334.3,229.2H179.9c-6.5,0-11.8,5.3-11.8,11.8s5.3,11.8,11.8,11.8h154.3c6.5,0,11.8-5.3,11.8-11.8
					C346.1,234.5,340.8,229.2,334.3,229.2z"/>
				<path d="M334.3,301.2H179.9c-6.5,0-11.8,5.3-11.8,11.8s5.3,11.8,11.8,11.8h154.3c6.5,0,11.8-5.3,11.8-11.8
					S340.8,301.2,334.3,301.2z"/>
			</g>
		</g>
	</g>
</g>
<g id="Calque_11" class="st0">
	<g class="st1">
		<g>
			<g>
				<path d="M256,496.7c-4.6,0-9.2-1.1-12.6-4.6l-89.6-89.6c-6.9-6.9-6.9-17.2,0-24.1s17.2-6.9,24.1,0l76.9,76.9l76.9-76.9
					c6.9-6.9,17.2-6.9,24.1,0s6.9,17.2,0,24.1l-89.6,89.6C265.1,495.5,260.5,496.7,256,496.7z"/>
				<path d="M256,496.7c-9.2,0-17.2-8-17.2-17.2V218.8c0-9.2,8-17.2,17.2-17.2c9.2,0,17.2,8,17.2,17.2v261.8
					C273.2,489.8,265.1,496.7,256,496.7z"/>
			</g>
			<g>
				<path d="M390.3,334.1h-59.4c-9.2,0-17.2-8-17.2-17.2s8-17.2,17.2-17.2h58.3c47.1-1.2,86.1-25,86.1-72.1s-39-78.2-86.1-78.2
					c-9.2,0-17.2-8-17.2-17.2s8-17.2,17.2-17.2c66.6,1.1,120.6,46,120.6,112.6C510.9,294.2,456.9,333,390.3,334.1z"/>
				<path d="M181.1,334.1h-23.8c-12.6,0-24.1-1.1-33.3-3.4C43.6,313.4-3.5,254,2.2,171.3C7.9,89.8,73.4,33.4,154.9,27.7
					c34.4-2.3,67.7,5.7,96.5,21.8c8,4.6,11.5,14.9,5.7,24.1c-4.6,8-14.9,11.5-24.1,5.7c-23-13.8-49.4-19.5-76.9-17.2
					C91.8,66.7,38.9,110.5,34.3,174.8c-4.6,65.4,31.1,110,94.2,123.8c6.9,1.1,16.1,2.3,26.4,2.3h23.8c9.2,0,17.2,8,17.2,17.2
					C198.3,326.1,190.2,334.1,181.1,334.1z"/>
				<path d="M390.3,148.3h-1.2c-9.2-1.1-16.1-9.2-16.1-18.4c0-2.3,0-4.6,0-6.9c0-37.9-31-68.9-68.9-68.9c-18.4,0-35.6,6.9-49.4,20.7
					c-6.9,6.9-17.2,6.9-24.1,0c-6.9-6.9-6.9-17.2,0-24.1c19.5-19.5,45.9-31,73.5-31c57.4,0,103.3,45.9,103.3,103.3
					c0,3.4,0,5.7,0,9.2C406.4,141.4,398.3,148.3,390.3,148.3z"/>
			</g>
		</g>
	</g>
</g>
<g id="Calque_12" class="st0">
	<g class="st1">
		<path d="M507.5,485.9L383,361.5c33.4-38.4,53.6-88.4,53.6-143.2C436.6,97.9,338.6,0,218.3,0C97.9,0,0,98,0,218.3
			s98,218.3,218.3,218.3c54.7,0,104.8-20.2,143.2-53.6l124.4,124.4c3,3,6.9,4.5,10.8,4.5s7.8-1.5,10.8-4.5
			C513.4,501.6,513.4,491.8,507.5,485.9z M30.5,218.3c0-103.5,84.2-187.7,187.7-187.7s187.7,84.2,187.7,187.7
			s-84.1,187.8-187.7,187.8C114.8,406.1,30.5,321.8,30.5,218.3z"/>
	</g>
</g>
<g id="Calque_13" class="st0">
	<g class="st1">
		<g>
			<path d="M482.3,29.7c-37.6-37.6-98.4-37.6-136,0L36,340.1c-2.2,2.2-3.8,5.1-4.5,8.3l-31,143.3c-1.2,5.6,0.5,11.4,4.5,15.4
				s9.8,5.7,15.4,4.5l143.3-31c3.2-0.7,6.2-2.4,8.3-4.5l310.4-310.4C519.8,128.2,519.8,67.2,482.3,29.7z M38.7,473.3l19-87.8
				l68.8,68.8L38.7,473.3z M160.1,440.5L71.6,352L343.1,80.3l88.5,88.5L160.1,440.5z M458.6,142l-3.2,3.2l-88.5-88.5l3.2-3.2
				c24.4-24.4,64.1-24.5,88.5,0C483,77.8,483,117.6,458.6,142z"/>
		</g>
	</g>
</g>
<g id="Calque_14" class="st0">
	<g class="st1">
		<path d="M414,125.5C394.3,105.8,368.2,95,340.4,95c-27.8,0-54,10.8-73.7,30.5l-10.3,10.3L246,125.4
			c-19.7-19.7-45.9-30.6-73.7-30.6c-27.7,0-53.9,10.8-73.5,30.5C79.1,145,68.3,171.1,68.3,199c0,27.8,10.9,53.9,30.6,73.6
			l149.7,149.7c2.1,2.1,4.9,3.2,7.6,3.2s5.5-1,7.6-3.1l150-149.5c19.7-19.7,30.5-45.8,30.5-73.7C444.4,171.4,433.6,145.2,414,125.5z
			 M398.6,257.6L256.2,399.5L114.1,257.4C98.5,241.8,89.9,221,89.9,199s8.5-42.8,24.2-58.4c15.5-15.5,36.3-24.2,58.3-24.2
			c22.1,0,42.9,8.6,58.5,24.2l18,18c4.2,4.2,11,4.2,15.2,0l17.9-17.9c15.6-15.6,36.4-24.2,58.4-24.2s42.7,8.6,58.4,24.2
			c15.6,15.6,24.2,36.4,24.2,58.4C422.9,221.3,414.3,242,398.6,257.6z"/>
	</g>
</g>
<g id="Calque_16" class="st0">
	<path class="st1" d="M479.5,190.8l-10.1-7.2c-10.1-7.2-20.3-14.4-30.5-21.4c-10.8-7.4-21.6-15.3-32-23
		c-12.1-8.8-24.6-17.9-37.2-26.5c-1.7-1.1-3.4-2.5-5.3-3.8c-9.1-6.8-22.3-15.4-36.7-14c-19.6,1.9-34.8,21.8-34.8,38.4v43.8
		c0,0-0.5,0-1.7,0c-42.8,0-290.5,22.5-290.5,235.7c0,6.1,4.8,11.3,10.8,12.3c0.7,0.1,1.6,0.2,2.3,0.2c5.3,0,10.2-3.3,11.9-8.4
		c1.6-4.5,74.2-122.3,242.6-122.3c8.5,0,18.2,0.3,24.5,0.8v40.9c0,13.6,10.1,27.3,23.2,34.7c4.6,2.6,10.2,3.9,15.3,3.9
		c12.5,0,22.8-7.7,30.9-14c2.2-1.7,4.4-3.3,6.3-4.5c7.5-4.8,14.9-10,22-15c3.6-2.5,7.3-5.1,10.8-7.5c19.7-13.5,39.5-27.7,58.6-41.5
		l5.4-3.9c2.5-1.8,5-3.5,7.5-5.3c2.1-1.5,4.2-2.9,5.9-4.1c14.6-9.6,32.8-21.5,32.8-44.3C511.9,212.8,496.8,202.6,479.5,190.8z
		 M464.9,258.5c-2,1.4-4,2.8-6.1,4.2c-2.6,1.8-5.3,3.7-7.9,5.5l-5.4,3.9c-19,13.7-38.6,27.8-58.1,41.2c-3.7,2.5-7.4,5.1-11,7.7
		c-6.9,4.9-14,9.9-21.1,14.4c-2.7,1.7-5.4,3.8-7.9,5.8c-4.7,3.7-11.2,8.7-15.1,8.7c-0.5,0-2.7-0.1-3.7-0.6
		c-5.1-2.9-10.5-8.4-10.5-12.9v-52.5c0-6.5-3.4-11.9-9.9-12.5c-13.5-1.2-26.1-1.8-38.9-1.8c-111.1,0-214.6,72.4-245.9,108.5
		c11.6-52.6,50.5-109.3,99.3-134.3c52.5-26.9,147-41.5,170-41.5c6.7,0,10.6-1,10.8-0.9c0.3,0,0.6-1.2,0.9-1.2h4.2
		c6.9,0,9.4-3.2,9.4-10.2v-56.6c0-5.8,7.2-12.9,12.1-13.4c5-0.4,12.5,4.6,18.5,9.1c2.1,1.6,4.6,3.1,6.6,4.5
		c12.3,8.3,24.8,17.3,36.7,26c10.6,7.7,21.6,15.7,32.7,23.4c10.1,7,20.2,14.1,30.2,21.2l10.4,7.3c18.3,12.5,21.6,16,21.6,23.5
		C486.8,242.9,480.2,248.5,464.9,258.5z"/>
</g>
<g id="Calque_15" class="st0">
	<g class="st1">
		<g>
			<path d="M373.5,425.4c-3.6,0-7.1-1.6-9.5-4.4L256.3,293.3L148.6,421c-3.4,4-8.8,5.4-13.7,3.7c-4.9-1.8-8.1-6.4-8.1-11.7V107.2
				c0-6.9,5.6-12.4,12.4-12.4h234.5c6.9,0,12.4,5.6,12.4,12.4V413c0,5.2-3.3,9.9-8.1,11.7C376.4,425.2,375,425.4,373.5,425.4z
				 M256.3,261.6c3.7,0,7.1,1.6,9.5,4.4l95.3,113V119.7H151.5v259.4l95.3-113C249.2,263.2,252.7,261.6,256.3,261.6z"/>
		</g>
	</g>
</g>
<g id="Calque_2_2_" class="st0">
	<g class="st1">
		<g>
			<path class="st2" d="M91.1,200.5c0-4.9,1.9-9.8,5.6-13.5c7.5-7.5,19.5-7.5,27,0L256,319.3L388.3,187c7.5-7.5,19.6-7.5,27,0
				c7.5,7.5,7.5,19.6,0,27L269.5,359.8c-7.5,7.5-19.6,7.5-27,0L96.7,214C92.9,210.3,91.1,205.4,91.1,200.5z"/>
		</g>
	</g>
</g>
<g id="Calque_2_-_copie" class="st0">
	<g class="st1">
		<g>
			<path class="st2" d="M420.9,346.3c0,4.9-1.9,9.8-5.6,13.5c-7.5,7.5-19.5,7.5-27,0L256,227.5L123.7,359.8c-7.5,7.5-19.6,7.5-27,0
				c-7.5-7.5-7.5-19.6,0-27L242.5,187c7.5-7.5,19.6-7.5,27,0l145.8,145.8C419,336.5,420.9,341.4,420.9,346.3z"/>
		</g>
	</g>
</g>
<path d="M248.1,284.2c3.7,0,7.4-1.2,10.5-3.7l164.6-89.9v66.1c0,6.1,4.9,11,11,11s11-4.9,11-11v-93c0-3.9-2.1-7.4-5.2-9.4
	c-4.4-4.3-28.5-18.7-181.4-102.2c-3-2.4-6.8-3.7-10.5-3.7s-7.4,1.2-10.5,3.7l-185,101.1c-4,3.2-6.3,8-6.3,13.1s2.3,9.9,6.3,13.1
	l185.1,101.1C240.7,282.9,244.5,284.2,248.1,284.2z M248.1,70.5l173.2,95.8l-173.2,95.8L74.9,166.3L248.1,70.5z"/>
<path d="M408.8,279.2c-3.9,0-7.7,0.2-11.4,0.7v-46.1l-22.6,15.5v36.1c-36.9,13.8-63.3,49.5-63.3,91.1c0,53.6,43.6,97.3,97.3,97.3
	c53.6,0,97.3-43.6,97.3-97.3C506.1,322.8,462.5,279.2,408.8,279.2z M408.8,457.2c-44.5,0-80.7-36.2-80.7-80.7s36.2-80.7,80.7-80.7
	s80.7,36.2,80.7,80.7S453.3,457.2,408.8,457.2z"/>
<path d="M285,378.7h-25.9l0,0c-2.6,0-6.1,0-10.9,0c-33.6,0-64.9-6.2-88.3-17.6c-19.8-9.6-36.8-28.2-36.8-39.6v-72.2l-22.6-15.5v87.7
	c0,23,16.7,43.9,47.1,58.6c27.1,13.2,62.8,20.4,100.6,20.4c4.1,0,7.7,0,10.9,0h0.1H285c6,0,10.9-4.9,10.9-10.9S291,378.7,285,378.7z
	"/>
<path d="M352.4,376.6L352.4,376.6c0-3.9,3.1-7,7-7h98.9c3.8,0,7,3.1,7,7v0c0,3.9-3.1,7-7,7h-98.9
	C355.5,383.6,352.4,380.4,352.4,376.6z"/>
<path d="M408.8,320.1L408.8,320.1c3.9,0,7,3.1,7,7V426c0,3.9-3.1,7-7,7l0,0c-3.9,0-7-3.1-7-7v-98.9
	C401.8,323.3,404.9,320.1,408.8,320.1z"/>
</svg>
